<svg width="512" height="512" viewBox="0 0 512 512" fill="none" xmlns="http://www.w3.org/2000/svg">
<g clip-path="url(#clip0_50_7263)">
<path d="M80.1173 351.872C80.1173 351.872 124.968 379.277 145.355 367.532V391.022C145.355 391.022 87.0488 385.932 67.4775 356.961C47.4985 328.382 80.1173 351.872 80.1173 351.872Z" fill="#E22727"/>
<path d="M509.052 264.167C507.829 258.295 502.936 237.545 503.751 230.498C504.567 223.451 500.897 221.102 496.004 223.06C491.112 225.017 489.073 230.107 489.888 241.069C489.481 238.328 487.442 229.324 486.627 221.885C485.811 214.838 482.141 214.055 478.064 216.796C468.278 222.668 474.394 239.503 474.394 239.503C474.394 239.503 468.686 238.328 464.201 243.026C459.308 247.724 456.046 250.465 451.561 252.814C447.892 254.771 449.523 257.903 452.377 259.861C454.008 259.861 455.231 260.644 456.454 261.427C461.347 262.21 469.502 260.252 472.764 253.988C472.764 259.078 474.802 262.601 477.249 266.516C473.579 269.649 471.133 274.738 471.133 274.738C471.133 274.738 465.832 277.087 460.939 274.738C461.755 268.083 459.716 263.384 456.454 261.035C456.454 261.035 456.046 261.035 455.639 261.035C454.415 260.644 453.192 260.252 451.969 259.469C446.668 259.078 446.668 263.384 446.668 268.082C446.668 272.781 445.853 282.96 445.853 282.96C445.853 282.96 458.085 290.398 461.347 295.096C461.347 312.322 478.064 316.237 478.064 316.237L477.656 341.293C476.841 345.991 414.457 360.085 414.457 363.609V379.269C445.853 379.269 482.549 358.519 491.519 346.774C491.927 345.991 492.335 345.6 492.743 344.817V339.727L493.558 319.369C493.558 319.369 497.635 314.28 501.305 305.275C504.975 296.271 506.606 291.573 510.683 282.96C513.945 274.347 510.275 269.648 509.052 264.167Z" fill="#E22727"/>
<path d="M340.249 219.933C344.326 193.311 361.859 169.429 373.276 156.118C378.576 150.246 388.362 150.637 392.439 157.293L399.371 168.255C402.633 173.344 401.409 180.391 396.109 183.915C385.508 190.962 370.014 205.056 363.082 231.678L340.249 219.933Z" fill="#8BCC3F"/>
<path d="M373.276 156.118C361.859 169.429 344.326 192.919 340.249 219.933L363.49 231.678C364.305 228.155 365.529 224.631 366.752 221.499L361.859 218.759C358.189 216.801 356.151 212.495 357.374 208.58C363.49 185.872 380.207 167.863 392.439 157.293C387.954 150.637 378.168 150.246 373.276 156.118Z" fill="#659922"/>
<path d="M325.57 219.132H353.704C398.555 219.132 433.213 256.324 428.32 298.998L414.864 418.406C412.01 445.419 388.362 465.778 360.228 465.778H325.163V219.132H325.57Z" fill="#E22727"/>
<path d="M390.809 228.53C402.225 242.624 408.341 261.024 406.303 280.599L392.847 400.007C389.993 427.021 366.345 447.379 338.211 447.379H325.571V465.779H360.636C388.77 465.779 412.419 445.421 415.273 418.408L428.728 299C431.582 269.246 415.681 242.232 390.809 228.53Z" fill="#B21010"/>
<path d="M233.425 219.132H205.291C160.44 219.132 125.783 256.324 130.676 298.998L144.131 418.406C146.985 445.419 170.634 465.778 198.768 465.778H233.833V219.132H233.425Z" fill="#E22727"/>
<path d="M215.889 219.132H205.288C196.725 219.132 188.163 220.698 180.416 223.047C170.63 239.49 165.737 258.673 166.961 277.857L175.931 418.797C176.338 422.321 176.746 425.844 177.154 428.976C178.377 435.24 172.261 441.113 165.737 439.156C158.398 437.198 151.874 433.674 146.166 428.976C153.505 450.509 174.3 465.778 198.764 465.778H233.829V219.132H215.889Z" fill="#B21010"/>
<path d="M280.313 488.89H278.274C236.685 488.89 202.028 457.57 199.581 417.637L190.611 276.696C187.757 233.24 224.045 196.438 269.304 196.438H288.875C334.134 196.438 370.422 233.24 367.568 276.696L358.598 417.637C356.559 457.57 321.902 488.89 280.313 488.89Z" fill="#E22727"/>
<path d="M333.318 209.341C342.288 222.652 347.181 238.312 345.958 255.538L336.988 396.479C334.541 436.412 299.884 467.732 258.295 467.732H256.256C239.947 467.732 224.453 463.034 211.813 454.812C226.083 475.562 250.14 488.873 277.866 488.873H279.905C321.494 488.873 356.151 457.553 358.598 417.62L367.568 276.679C369.606 248.883 355.743 223.827 333.318 209.341Z" fill="#B21010"/>
<path d="M199.99 124.016C168.594 129.497 114.365 150.247 120.889 158.468C132.713 173.737 146.984 246.556 146.984 246.556C160.847 250.079 211.406 247.339 243.21 241.075C269.713 236.768 329.65 217.585 339.435 212.495C339.435 212.495 325.98 143.2 332.096 125.191C335.766 113.837 259.111 109.922 199.99 124.016Z" fill="#EDEDED"/>
<path d="M194.684 155.348C196.315 154.956 213.848 154.173 223.226 144.777C223.226 144.777 234.234 154.956 256.66 148.692C256.66 148.692 252.175 160.046 224.857 161.612C201.616 169.833 194.684 155.348 194.684 155.348Z" fill="#C5C5BE"/>
<path d="M143.313 193.321C145.351 179.227 146.982 152.996 149.837 139.293C131.488 146.732 117.218 154.562 120.887 158.869C125.372 164.741 130.265 178.835 134.343 194.104C135.974 200.368 144.944 234.82 147.39 246.956C144.128 228.947 139.643 198.802 143.313 193.321Z" fill="#C5C5BE"/>
<path d="M304.368 115.799C301.514 124.803 298.252 134.199 298.66 143.595C299.067 147.902 300.29 152.208 304.368 154.949C308.037 157.298 312.523 158.864 315.377 161.996C318.639 165.911 323.531 185.094 323.124 189.792C323.124 198.014 319.862 205.844 313.338 211.716C305.183 219.155 293.359 222.678 282.758 225.419C269.303 229.334 250.954 236.381 236.684 237.947C229.752 238.73 162.883 247.734 145.351 241.862C145.759 244.602 146.166 246.168 146.166 246.168C160.029 249.692 210.589 246.951 242.392 240.687C268.895 236.381 328.832 217.197 338.618 212.108C338.618 212.108 325.162 142.812 331.278 124.803C333.317 120.888 322.308 117.365 304.368 115.799Z" fill="#C5C5BE"/>
<path d="M153.047 191.643C182.379 187.016 203.258 166.315 199.681 145.405C196.103 124.495 169.425 111.295 140.093 115.921C110.76 120.548 89.8819 141.249 93.4591 162.159C97.0364 183.069 123.715 196.269 153.047 191.643Z" fill="#EDEDED"/>
<path d="M319.402 161.457C348.778 158.875 370.961 139.676 368.949 118.576C366.937 97.475 341.493 82.4629 312.117 85.045C282.742 87.6272 260.559 106.826 262.571 127.926C264.582 149.027 290.027 164.039 319.402 161.457Z" fill="#EDEDED"/>
<path d="M193.812 161.84C223.144 157.214 243.845 135.475 240.049 113.285C236.253 91.0947 209.397 76.8566 180.065 81.4831C150.732 86.1096 130.031 107.849 133.828 130.039C137.624 152.229 164.48 166.467 193.812 161.84Z" fill="#EDEDED"/>
<path d="M257.873 152.859C287.296 150.833 309.685 129.61 307.881 105.456C306.077 81.3024 280.763 63.3645 251.34 65.3905C221.917 67.4166 199.528 88.6395 201.332 112.793C203.136 136.947 228.45 154.885 257.873 152.859Z" fill="#EDEDED"/>
<path d="M323.939 145.157C294.99 152.204 286.427 132.629 280.719 135.369C271.341 140.067 261.555 144.374 253.401 145.548C231.383 149.072 226.082 146.723 226.082 146.723C234.645 161.991 267.264 154.553 274.603 149.072C284.796 157.685 300.698 162.383 317.823 161.208C347.18 159.251 370.421 140.459 369.198 118.926C369.198 115.794 368.382 113.053 367.159 110.313C363.897 139.284 345.957 140.067 323.939 145.157Z" fill="#C5C5BE"/>
<path d="M284.388 75.0925C283.572 75.0925 292.95 82.5311 292.542 95.8421C292.542 98.5826 296.212 90.7526 299.882 88.7951C301.105 88.0121 289.688 75.8755 284.388 75.0925Z" fill="#C5C5BE"/>
<path d="M192.647 149.076C154.728 153.774 139.642 145.553 146.166 151.817C157.582 162.387 175.93 168.26 194.278 164.736C228.528 157.689 239.945 141.246 239.945 122.454C233.421 136.548 213.442 146.336 192.647 149.076Z" fill="#C5C5BE"/>
<path d="M79.2981 158.852C79.7059 159.244 79.7059 159.635 79.7059 160.027C80.1136 161.593 78.8904 163.159 77.2595 163.159L53.203 166.682C51.5721 167.074 49.9411 165.899 49.9411 164.333C49.5334 162.767 50.7566 161.201 52.3876 161.201L76.444 157.678C77.6672 157.678 78.8904 158.069 79.2981 158.852ZM72.7744 136.928L51.9798 130.273C50.3489 129.881 48.7179 130.664 48.3102 132.23C47.9025 133.796 48.7179 135.362 50.3489 135.754L71.1434 142.409C72.7744 142.801 74.4053 142.018 74.813 140.452C75.2208 139.669 74.813 138.494 74.4053 137.711C73.9976 137.711 73.5898 137.32 72.7744 136.928ZM92.3457 120.094L75.6285 104.434C74.4053 103.259 72.7744 103.259 71.5512 104.434C70.3279 105.608 70.3279 107.174 71.5512 108.349L88.2683 124.009C89.4915 125.183 91.1225 125.183 92.3457 124.009C93.1612 122.834 93.1612 121.268 92.3457 120.094ZM101.724 80.9437C100.093 81.3352 99.2772 82.9012 99.6849 84.4672L104.578 100.519C104.985 102.085 106.616 102.868 108.247 102.476C109.878 102.085 110.694 100.519 110.286 98.9527L105.393 82.9012C105.393 82.5097 104.985 82.1182 104.985 82.1182C104.17 80.9437 102.947 80.5522 101.724 80.9437Z" fill="#FFD784"/>
<path d="M317.823 64.1076L336.986 50.0136C338.21 49.2306 340.248 49.2306 341.064 50.4051C341.879 51.5796 341.879 53.5371 340.656 54.3201L321.492 68.4141C320.269 69.1971 318.231 69.1971 317.415 68.0226C317.007 67.6311 317.007 67.2396 317.007 66.8481C316.6 65.6736 317.007 64.4991 317.823 64.1076ZM305.183 48.4476C305.183 49.2306 305.998 50.0136 306.814 50.7966C308.445 51.5796 310.076 50.7966 310.891 49.6221L320.269 30.83C321.085 29.264 320.269 27.698 319.046 26.915C317.823 26.132 315.784 26.915 314.969 28.0895L305.591 46.8816C305.183 47.2731 305.183 48.0561 305.183 48.4476ZM279.088 48.0561C279.088 49.6221 280.311 50.7966 281.942 50.7966C283.573 50.7966 284.796 49.6221 284.796 48.0561V25.7405C284.796 24.1745 283.573 23 281.942 23C280.311 23 279.088 24.1745 279.088 25.7405V48.0561ZM241.984 30.047C241.984 30.4385 241.984 30.83 242.392 30.83L250.954 45.7071C251.77 47.2731 253.4 47.6646 255.031 46.8816C256.662 46.0986 257.07 44.5326 256.255 42.9666L247.692 28.0895C246.877 26.5235 245.246 26.132 243.615 26.915C242.392 28.0895 241.984 29.264 241.984 30.047Z" fill="#FFD784"/>
<path d="M239.538 261.025L222.821 266.898C220.374 267.681 217.928 266.506 217.113 264.549C216.297 262.2 217.52 259.85 219.559 259.067L236.276 253.195C238.723 252.412 241.169 253.586 241.984 255.544C243.208 257.501 241.985 260.242 239.538 261.025Z" fill="black"/>
<path d="M318.64 261.025L335.357 266.898C337.803 267.681 340.25 266.506 341.065 264.549C341.881 262.2 340.657 259.85 338.619 259.067L321.902 253.195C319.455 252.412 317.009 253.586 316.193 255.544C314.97 257.501 316.193 260.242 318.64 261.025Z" fill="black"/>
<path d="M341.063 313.108C339.84 313.108 339.025 312.716 338.209 311.933C325.162 299.405 298.659 308.018 295.805 308.801C293.358 309.584 290.912 308.41 290.096 306.061C290.096 305.669 289.689 304.886 289.689 304.495C290.504 290.792 308.445 282.962 325.162 282.962C327.2 282.962 329.239 284.528 329.239 286.877C329.239 288.835 327.608 290.792 325.162 290.792C314.153 290.792 303.959 294.707 299.882 300.188C310.891 297.448 331.278 295.099 343.918 306.844C345.549 308.41 345.549 310.759 343.918 312.325C343.102 312.716 341.879 313.108 341.063 313.108Z" fill="black"/>
<path d="M292.136 379.274H239.946C234.237 379.274 228.937 377.316 224.859 373.401C223.636 372.227 223.636 370.661 224.859 369.878C226.083 368.703 227.713 368.703 228.529 369.878C231.383 372.618 235.46 374.184 239.946 374.184H292.136C302.737 374.184 311.299 365.963 311.299 355.784C311.299 354.218 312.523 353.043 314.153 353.043C315.784 353.043 317.008 354.218 317.008 355.784C316.6 368.703 305.591 379.274 292.136 379.274Z" fill="black" stroke="black" stroke-miterlimit="10"/>
<path d="M230.57 324.855C244.306 324.855 255.442 314.163 255.442 300.974C255.442 287.784 244.306 277.092 230.57 277.092C216.834 277.092 205.698 287.784 205.698 300.974C205.698 314.163 216.834 324.855 230.57 324.855Z" fill="#ECF0F1"/>
<path d="M230.571 316.637C239.579 316.637 246.881 309.625 246.881 300.976C246.881 292.328 239.579 285.316 230.571 285.316C221.564 285.316 214.262 292.328 214.262 300.976C214.262 309.625 221.564 316.637 230.571 316.637Z" fill="black"/>
<path d="M222.416 300.976C226.92 300.976 230.571 297.471 230.571 293.146C230.571 288.822 226.92 285.316 222.416 285.316C217.913 285.316 214.262 288.822 214.262 293.146C214.262 297.471 217.913 300.976 222.416 300.976Z" fill="#ECF0F1"/>
<path d="M283.574 406.667H259.11C257.479 406.667 255.848 405.493 255.848 403.535C255.848 401.969 257.072 400.403 259.11 400.403H283.574C285.205 400.403 286.836 401.578 286.836 403.535C286.836 405.493 285.205 406.667 283.574 406.667Z" fill="#B21010"/>
<path d="M460.94 275.546C460.94 275.155 460.94 275.155 460.94 274.763C460.532 274.763 460.532 274.763 460.125 274.372C460.94 268.108 458.901 263.41 456.047 260.669C456.863 260.669 457.678 260.669 458.494 260.669C457.27 259.495 455.639 258.712 452.785 259.495C452.785 259.495 458.086 266.542 456.047 273.197C454.008 280.244 451.562 282.593 446.261 282.593H445.854C448.3 284.159 458.086 290.423 460.94 294.338C460.94 294.73 460.94 295.121 460.94 295.904L472.357 274.763C472.764 275.546 461.755 283.376 460.94 275.546Z" fill="#B21010"/>
<path d="M469.094 304.511C463.386 290.025 473.172 277.497 481.326 266.535C482.142 265.752 482.957 264.969 483.773 264.969C481.326 259.097 479.695 253.224 478.064 246.96C475.618 237.564 475.21 228.56 475.618 218.772V218.381C471.541 222.687 472.356 230.126 473.172 234.824H473.579C473.579 234.824 474.802 240.696 476.841 246.177C469.502 244.611 471.133 246.569 464.609 250.875C458.901 254.79 457.27 258.705 451.562 258.705C451.969 258.705 451.969 258.705 452.377 259.097C454.416 259.88 456.047 260.663 457.27 261.837C456.862 261.446 456.454 261.054 456.454 261.054C461.347 261.837 469.502 259.88 472.356 253.616C472.356 258.705 474.395 262.229 476.841 266.144C473.172 269.276 470.725 274.365 470.725 274.365C470.725 274.365 470.317 274.365 469.91 274.757C469.91 275.148 469.502 275.148 469.502 275.54C469.502 276.323 469.502 276.714 469.502 277.497C469.094 279.455 468.279 281.021 467.463 282.587C466.648 284.153 466.24 286.11 465.425 287.676C465.017 288.851 464.609 290.025 464.201 291.2C463.794 292.374 462.978 293.157 462.163 293.94C462.163 294.332 461.755 294.332 461.755 294.723L462.163 295.115C462.163 312.341 478.88 316.256 478.88 316.256L478.472 342.486C480.103 343.661 481.734 344.835 483.365 345.227C482.957 337.788 482.957 330.741 483.365 323.303C483.365 321.345 484.588 320.171 485.811 319.388C478.064 316.647 471.948 311.949 469.094 304.511Z" fill="#B21010"/>
<path d="M479.696 264.189C481.326 263.014 483.365 262.623 485.404 262.623C487.443 262.623 489.481 262.623 491.52 263.406C495.19 264.58 498.859 266.538 501.306 269.67C499.267 269.278 497.636 268.887 495.597 268.495L490.297 266.929C486.627 266.146 483.365 265.363 479.696 264.189Z" fill="#B21010"/>
<path d="M489.481 239.512C491.519 243.819 492.743 248.517 493.558 252.823C494.374 257.522 494.781 261.828 494.781 266.526C493.15 264.569 492.335 262.22 491.519 260.262C490.704 257.913 490.296 255.564 489.888 253.607C488.665 248.908 488.665 244.21 489.481 239.512Z" fill="#B21010"/>
<path d="M473.988 239.137C477.25 242.66 479.288 246.967 480.919 250.882C482.55 255.188 483.773 259.495 483.773 264.193C480.512 260.669 478.473 256.363 476.842 252.448C475.619 248.141 474.396 243.835 473.988 239.137Z" fill="#B21010"/>
<path d="M472.355 253.622C472.355 252.447 471.947 252.056 471.947 251.664C471.947 251.273 471.947 250.49 471.947 250.098C471.947 249.707 471.947 248.924 472.355 248.532C472.763 247.749 472.763 247.358 473.578 246.575C475.617 247.358 476.025 248.924 476.025 250.49C476.025 251.273 475.617 252.056 475.209 252.839C473.986 253.23 473.17 253.622 472.355 253.622Z" fill="#B21010"/>
<path d="M460.126 274.749C460.941 275.14 460.941 276.315 460.941 276.706C460.941 277.489 460.533 277.881 460.126 278.272C459.31 279.055 457.679 279.447 456.456 278.272C456.456 277.489 456.864 276.706 456.864 276.315C456.864 275.923 457.272 275.532 457.679 275.14C458.087 275.14 458.087 274.749 458.495 274.749C458.902 275.14 459.31 275.14 460.126 274.749Z" fill="#B21010"/>
<path d="M470.319 274.387C471.135 276.736 470.727 279.085 469.912 280.651C469.096 282.608 467.873 284.174 465.834 285.74C465.019 283.391 465.427 281.434 466.242 279.476C467.058 277.519 468.281 275.953 470.319 274.387Z" fill="#B21010"/>
<path d="M489.891 275.159C487.852 279.465 485.813 282.597 484.182 286.512C483.367 288.47 482.144 290.036 481.328 291.993C480.513 293.951 479.697 295.908 478.474 297.866C477.251 293.559 478.474 288.861 480.513 284.946C481.736 282.989 482.959 281.031 484.59 279.465C485.813 277.508 487.852 275.942 489.891 275.159Z" fill="#B21010"/>
<path d="M73.1798 364.785C73.1798 364.785 54.0163 341.295 49.5312 334.64C45.0461 327.984 72.7721 328.376 72.7721 328.376C72.7721 328.376 86.6351 354.215 96.4208 363.611C98.8672 368.7 92.7512 362.045 89.4893 364.785C86.2274 367.134 78.4804 369.092 73.1798 364.785Z" fill="#E22727"/>
<path d="M69.1035 328.763V328.371C61.7642 328.371 45.8626 329.154 49.5322 334.244C54.0173 340.899 73.1809 364.389 73.1809 364.389C76.8505 367.521 81.7433 367.521 85.4129 366.347C77.2582 355.385 71.5499 342.857 69.1035 328.763Z" fill="#B21010"/>
<path d="M81.7465 352.609L70.7376 354.958C69.1067 355.349 67.8835 354.566 67.4757 353C67.068 351.434 67.8835 350.26 69.5144 349.868L80.5233 347.519C82.1542 347.128 83.3774 347.911 83.7852 349.477C84.1929 350.651 83.3774 352.217 81.7465 352.609Z" fill="#36312B"/>
<path d="M93.9764 431.301C87.0448 432.867 80.1133 426.212 78.8901 418.773L69.5122 359.656L84.1907 356.524L102.131 413.684C104.17 420.731 100.908 429.735 93.9764 431.301Z" fill="#659922"/>
<path d="M84.1915 370.607C84.5992 372.564 83.376 374.913 80.9296 375.305C78.8909 375.696 76.4445 374.522 76.0367 372.173C75.629 370.215 76.8522 367.866 79.2986 367.475C81.745 367.083 83.7837 368.649 84.1915 370.607Z" fill="#36312B"/>
<path d="M94.3833 413.669C94.7911 415.626 93.5679 417.975 91.1215 418.367C89.0828 418.758 86.6364 417.584 86.2286 415.235C85.8209 413.277 87.0441 410.928 89.4905 410.537C91.5292 410.145 93.5679 411.32 94.3833 413.669Z" fill="#36312B"/>
<path d="M54.4313 152.925L7.54165 163.104C1.83335 164.279 -1.42854 170.543 0.610142 176.024L18.1428 226.136C19.7737 230.834 24.6666 233.966 29.5594 232.791L35.6754 231.617C39.7528 230.834 43.8302 233.183 44.6456 237.098L66.2556 345.544L80.9341 342.412L53.2081 235.532C52.3926 231.617 54.839 227.702 58.9164 226.919L65.0324 225.744C69.9253 224.57 73.1871 220.263 72.3717 214.782L66.2556 162.321C65.4402 156.057 60.1396 151.751 54.4313 152.925ZM15.6964 194.033L29.5594 172.892C29.9671 172.109 31.1903 171.717 32.0058 172.5C32.8213 173.283 33.229 174.066 32.8213 174.849L18.9583 195.99C18.5505 196.382 18.1428 196.773 17.7351 196.773C17.3273 196.773 16.9196 196.773 16.5118 196.382C15.2886 195.99 15.2886 194.816 15.6964 194.033ZM23.0356 210.476C22.6279 210.867 22.2201 211.259 21.8124 211.259C21.4047 211.259 20.9969 211.259 20.5892 210.867C19.7737 210.476 19.366 209.301 20.1815 208.518L45.4611 170.151C45.8688 169.368 47.092 168.977 47.9075 169.76C48.723 170.151 49.1307 171.326 48.3153 172.109L23.0356 210.476ZM32.0058 217.523C31.5981 217.523 31.1903 217.523 30.7826 217.131C29.9671 216.74 29.5594 215.565 30.3749 214.782L55.6545 176.415C56.0622 175.632 57.2854 175.241 58.1009 176.024C58.9164 176.807 59.3241 177.59 58.5087 178.373L32.8213 216.74C32.8213 217.131 32.4135 217.523 32.0058 217.523ZM62.586 193.25L48.723 214.391C48.3153 214.782 47.9075 215.174 47.4998 215.174C47.092 215.174 46.6843 215.174 46.2766 214.782C45.4611 214.391 45.0534 213.216 45.8688 212.433L59.7319 191.292C60.1396 190.509 61.3628 190.118 62.1783 190.901C62.9937 191.292 62.9937 192.467 62.586 193.25Z" fill="#36312B"/>
<path d="M91.1233 302.15C91.1233 302.15 95.2007 302.933 96.8316 308.806C98.4625 314.678 96.4239 317.028 89.9001 321.726C82.9686 326.815 59.3199 336.211 48.311 337.386C48.311 337.386 34.0403 342.867 25.8855 313.112C20.1772 307.631 16.9153 299.41 22.2159 291.188C27.9242 282.967 35.6712 274.354 38.1176 270.83C40.564 266.915 46.2723 268.873 53.6116 267.698C60.9508 266.524 71.1442 263.392 71.1442 263.392C71.1442 263.392 78.4835 260.26 79.2989 265.349C80.1144 270.439 80.1144 273.962 80.1144 273.962C80.1144 273.962 85.8227 271.222 88.6769 274.745C91.531 278.269 94.7929 284.924 90.3078 288.056C91.531 293.537 91.9388 297.844 91.1233 302.15Z" fill="#E22727"/>
<path d="M96.8309 309.582C91.5303 317.02 82.5601 321.327 73.1822 324.85C70.328 325.633 67.4739 326.416 64.6197 327.199C63.3965 327.591 61.7656 327.982 60.5424 328.374C57.6882 329.548 54.8341 330.331 51.9799 330.723C43.0097 331.506 39.7478 326.416 36.486 319.369C33.6318 313.105 28.739 307.233 29.1467 300.186C29.1467 295.879 31.5931 292.356 34.4473 290.007V289.615C34.0395 286.483 34.855 283.351 36.0782 280.219C37.7092 275.913 40.5633 271.998 43.4175 268.083C40.971 268.083 38.9324 268.866 37.7092 270.432C35.2627 274.347 27.5158 282.568 21.8075 290.79C16.5069 299.403 19.7688 307.233 25.4771 312.714C33.6318 342.468 47.9026 336.987 47.9026 336.987C58.9114 336.204 82.5601 326.416 89.4916 321.327C96.0154 317.02 98.0541 314.671 96.8309 309.582Z" fill="#B21010"/>
<path d="M33.2231 289.999C40.5624 286.084 48.3094 282.952 56.0563 280.211C60.1337 279.037 63.8033 277.862 67.8807 276.688C71.958 275.513 76.0354 274.73 79.705 273.556C76.4431 276.296 72.7735 278.254 68.6962 279.82C65.0265 281.386 60.9492 282.952 56.8718 284.126C49.5326 286.475 41.3779 288.824 33.2231 289.999Z" fill="#B21010"/>
<path d="M90.3043 287.26C86.2269 291.567 81.3341 295.09 76.4413 297.831C73.9949 299.397 71.1407 300.571 68.6943 301.746C65.8401 302.92 62.986 303.703 60.1318 304.486C64.6169 300.571 69.5098 297.439 74.4026 294.699C79.2954 291.958 84.1883 289.218 90.3043 287.26Z" fill="#B21010"/>
<path d="M91.1224 302.15C91.1224 303.325 90.3069 304.108 89.8991 305.282C89.4914 306.065 88.6759 307.24 87.8605 307.631C86.2295 309.197 84.5986 310.372 82.9676 311.546C79.7057 313.895 76.0361 315.461 71.551 316.244C73.9974 312.721 77.2593 310.372 80.5212 308.023C82.1522 306.848 83.7831 306.065 85.8218 304.891C86.6373 304.499 87.4527 304.108 88.2682 303.325C89.4914 303.325 90.3069 302.542 91.1224 302.15Z" fill="#B21010"/>
<path d="M41.3793 286.881C40.5638 287.273 39.7483 287.664 39.3406 287.664C38.9329 287.664 38.1174 288.056 37.7097 288.056C36.4865 288.056 35.2632 287.664 34.04 286.098C35.2632 284.532 36.4865 284.141 38.1174 284.141C38.9329 284.141 39.7483 284.532 40.1561 284.924C40.5638 284.924 40.9716 285.707 41.3793 286.881Z" fill="#B21010"/>
<path d="M50.7568 266.906L53.611 280.609L63.8044 277.477L60.1348 263.383L50.7568 266.906Z" fill="#36312B"/>
<path d="M140.051 369.078C140.051 369.078 112.733 355.767 92.3461 359.682C71.9593 363.597 120.888 379.257 120.888 379.257L149.429 383.172L140.051 369.078Z" fill="#E22727"/>
</g>
<defs>
<clipPath id="clip0_50_7263">
<rect width="512" height="512" fill="white"/>
</clipPath>
</defs>
</svg>
