<svg width="260" height="66" viewBox="0 0 260 66" fill="none" xmlns="http://www.w3.org/2000/svg">
<path d="M11.3497 46.5894C11.3497 46.5894 17.7034 50.4718 20.5915 48.8079V52.1356C20.5915 52.1356 12.3316 51.4146 9.55905 47.3104C6.72872 43.2617 11.3497 46.5894 11.3497 46.5894Z" fill="#E22727"/>
<path d="M72.1145 34.1649C71.9412 33.3329 71.248 30.3935 71.3636 29.3951C71.4791 28.3968 70.9592 28.0641 70.2661 28.3414C69.5729 28.6187 69.2841 29.3397 69.3997 30.8926C69.3419 30.5044 69.0531 29.2288 68.9376 28.175C68.822 27.1767 68.3022 27.0658 67.7246 27.454C66.3383 28.2859 67.2047 30.6708 67.2047 30.6708C67.2047 30.6708 66.3961 30.5044 65.7607 31.1699C65.0675 31.8355 64.6054 32.2237 63.9701 32.5565C63.4502 32.8338 63.6813 33.2775 64.0856 33.5548C64.3166 33.5548 64.4899 33.6657 64.6632 33.7766C65.3563 33.8876 66.5116 33.6102 66.9737 32.7229C66.9737 33.4439 67.2625 33.943 67.609 34.4976C67.0892 34.9413 66.7426 35.6623 66.7426 35.6623C66.7426 35.6623 65.9917 35.9951 65.2986 35.6623C65.4141 34.7195 65.1253 34.0539 64.6632 33.7212C64.6632 33.7212 64.6054 33.7212 64.5477 33.7212C64.3744 33.6657 64.2011 33.6102 64.0278 33.4993C63.2769 33.4439 63.2769 34.0539 63.2769 34.7195C63.2769 35.385 63.1614 36.827 63.1614 36.827C63.1614 36.827 64.8942 37.8808 65.3563 38.5463C65.3563 40.9867 67.7246 41.5413 67.7246 41.5413L67.6668 45.0908C67.5513 45.7564 58.7137 47.753 58.7137 48.2522V50.4706C63.1614 50.4706 68.3599 47.5311 69.6307 45.8673C69.6885 45.7564 69.7462 45.7009 69.804 45.59V44.869L69.9195 41.985C69.9195 41.985 70.4971 41.264 71.017 39.9883C71.5368 38.7127 71.7679 38.0472 72.3455 36.827C72.8076 35.6069 72.2877 34.9413 72.1145 34.1649Z" fill="#E22727"/>
<path d="M48.2009 27.8984C48.7785 24.127 51.2623 20.7438 52.8796 18.8581C53.6305 18.0262 55.0168 18.0817 55.5944 19.0245L56.5764 20.5775C57.0385 21.2985 56.8652 22.2968 56.1143 22.7959C54.6125 23.7942 52.4175 25.7909 51.4356 29.5623L48.2009 27.8984Z" fill="#8BCC3F"/>
<path d="M52.8796 18.8581C51.2623 20.7438 48.7785 24.0715 48.2009 27.8984L51.4933 29.5623C51.6089 29.0631 51.7822 28.564 51.9554 28.1203L51.2623 27.732C50.7424 27.4547 50.4536 26.8446 50.6269 26.29C51.4933 23.0732 53.8616 20.522 55.5944 19.0245C54.959 18.0817 53.5728 18.0262 52.8796 18.8581Z" fill="#659922"/>
<path d="M46.1215 27.7849H50.107C56.4608 27.7849 61.3706 33.0538 60.6774 39.0991L58.7713 56.015C58.367 59.8418 55.0168 62.7258 51.0312 62.7258H46.0637V27.7849H46.1215Z" fill="#E22727"/>
<path d="M55.3635 29.1162C56.9808 31.1128 57.8472 33.7195 57.5584 36.4926L55.6523 53.4085C55.2479 57.2353 51.8977 60.1193 47.9122 60.1193H46.1216V62.726H51.0891C55.0746 62.726 58.4248 59.842 58.8292 56.0152L60.7353 39.0993C61.1396 34.8842 58.8869 31.0574 55.3635 29.1162Z" fill="#B21010"/>
<path d="M33.0678 27.7849H29.0823C22.7285 27.7849 17.8187 33.0538 18.5119 39.0991L20.418 56.015C20.8223 59.8418 24.1725 62.7258 28.1581 62.7258H33.1256V27.7849H33.0678Z" fill="#E22727"/>
<path d="M30.5837 27.7849H29.0819C27.8689 27.7849 26.6559 28.0068 25.5584 28.3395C24.1721 30.6689 23.479 33.3866 23.6523 36.1042L24.923 56.0704C24.9808 56.5696 25.0385 57.0687 25.0963 57.5124C25.2696 58.3998 24.4032 59.2317 23.479 58.9544C22.4393 58.6771 21.5151 58.178 20.7064 57.5124C21.7461 60.5628 24.692 62.7258 28.1577 62.7258H33.1252V27.7849H30.5837Z" fill="#B21010"/>
<path d="M39.7104 66H39.4215C33.5299 66 28.6201 61.5631 28.2735 55.906L27.0028 35.9397C26.5985 29.7835 31.7392 24.5701 38.1508 24.5701H40.9234C47.3349 24.5701 52.4757 29.7835 52.0714 35.9397L50.8006 55.906C50.5118 61.5631 45.602 66 39.7104 66Z" fill="#E22727"/>
<path d="M47.2191 26.3979C48.4898 28.2836 49.183 30.5021 49.0097 32.9424L47.7389 52.9087C47.3924 58.5658 42.4826 63.0027 36.5909 63.0027H36.3021C33.9917 63.0027 31.7967 62.3372 30.0061 61.1725C32.0278 64.1119 35.4357 65.9977 39.3635 65.9977H39.6523C45.544 65.9977 50.4537 61.5607 50.8003 55.9036L52.0711 35.9374C52.3599 31.9996 50.396 28.45 47.2191 26.3979Z" fill="#B21010"/>
<path d="M28.3313 14.3103C23.8837 15.0868 16.2014 18.0263 17.1256 19.191C18.8007 21.354 20.8223 31.6699 20.8223 31.6699C22.7862 32.169 29.9487 31.7808 34.4541 30.8934C38.2086 30.2833 46.6995 27.5657 48.0858 26.8447C48.0858 26.8447 46.1797 17.028 47.0461 14.4767C47.566 12.8683 36.7068 12.3137 28.3313 14.3103Z" fill="#EDEDED"/>
<path d="M27.5798 18.7489C27.8109 18.6935 30.2946 18.5825 31.6231 17.2515C31.6231 17.2515 33.1827 18.6935 36.3596 17.8061C36.3596 17.8061 35.7242 19.4145 31.8542 19.6363C28.5618 20.801 27.5798 18.7489 27.5798 18.7489Z" fill="#C5C5BE"/>
<path d="M20.3023 24.1283C20.5911 22.1317 20.8222 18.4158 21.2265 16.4746C18.6272 17.5284 16.6056 18.6376 17.1254 19.2477C17.7608 20.0796 18.454 22.0762 19.0316 24.2393C19.2626 25.1266 20.5334 30.0073 20.88 31.7266C20.4179 29.1754 19.7825 24.9048 20.3023 24.1283Z" fill="#C5C5BE"/>
<path d="M43.118 13.1462C42.7137 14.4219 42.2516 15.7529 42.3093 17.084C42.3671 17.6941 42.5404 18.3042 43.118 18.6924C43.6378 19.0252 44.2732 19.247 44.6776 19.6907C45.1397 20.2453 45.8328 22.963 45.775 23.6285C45.775 24.7932 45.3129 25.9024 44.3888 26.7344C43.2335 27.7881 41.5584 28.2873 40.0566 28.6755C38.1505 29.2302 35.5512 30.2285 33.5296 30.4503C32.5476 30.5612 23.0747 31.8369 20.5909 31.0049C20.6487 31.3932 20.7065 31.615 20.7065 31.615C22.6704 32.1142 29.8328 31.7259 34.3382 30.8385C38.0927 30.2285 46.5837 27.5108 47.97 26.7898C47.97 26.7898 46.0638 16.9731 46.9303 14.4219C47.2191 13.8672 45.6595 13.3681 43.118 13.1462Z" fill="#C5C5BE"/>
<path d="M21.6813 23.8906C25.8367 23.2352 28.7944 20.3026 28.2876 17.3404C27.7809 14.3782 24.0015 12.5082 19.8462 13.1636C15.6908 13.819 12.7331 16.7517 13.2399 19.7139C13.7466 22.676 17.526 24.546 21.6813 23.8906Z" fill="#EDEDED"/>
<path d="M45.248 19.6144C49.4094 19.2486 52.5519 16.5289 52.2669 13.5397C51.9819 10.5505 48.3774 8.42376 44.2159 8.78956C40.0544 9.15536 36.9119 11.8751 37.1969 14.8643C37.4819 17.8535 41.0865 19.9802 45.248 19.6144Z" fill="#EDEDED"/>
<path d="M27.4564 19.6687C31.6118 19.0133 34.5443 15.9337 34.0065 12.7901C33.4688 9.64657 29.6642 7.62954 25.5089 8.28495C21.3535 8.94036 18.421 12.02 18.9588 15.1636C19.4966 18.3071 23.3011 20.3241 27.4564 19.6687Z" fill="#EDEDED"/>
<path d="M36.5314 18.3963C40.6996 18.1093 43.8714 15.1028 43.6158 11.6811C43.3602 8.25935 39.7741 5.71818 35.6059 6.0052C31.4378 6.29222 28.266 9.29875 28.5216 12.7205C28.7772 16.1422 32.3633 18.6834 36.5314 18.3963Z" fill="#EDEDED"/>
<path d="M45.8906 17.3052C41.7896 18.3036 40.5766 15.5305 39.7679 15.9187C38.4394 16.5842 37.0531 17.1943 35.8979 17.3607C32.7787 17.8599 32.0278 17.5271 32.0278 17.5271C33.2408 19.6901 37.8618 18.6363 38.9015 17.8599C40.3455 19.08 42.5982 19.7456 45.0242 19.5792C49.183 19.3019 52.4755 16.6397 52.3022 13.5893C52.3022 13.1456 52.1866 12.7574 52.0134 12.3691C51.5513 16.4733 49.0098 16.5842 45.8906 17.3052Z" fill="#C5C5BE"/>
<path d="M40.2878 7.37964C40.1722 7.37964 41.5008 8.43341 41.443 10.3191C41.443 10.7073 41.9629 9.59811 42.4827 9.3208C42.656 9.20988 41.0387 7.49056 40.2878 7.37964Z" fill="#C5C5BE"/>
<path d="M27.2912 17.8605C21.9193 18.5261 19.7822 17.3614 20.7063 18.2487C22.3237 19.7462 24.9229 20.5781 27.5222 20.079C32.3742 19.0807 33.9915 16.7513 33.9915 14.0891C33.0673 16.0857 30.237 17.4723 27.2912 17.8605Z" fill="#C5C5BE"/>
<path d="M11.2336 19.2454C11.2913 19.3009 11.2913 19.3564 11.2913 19.4118C11.3491 19.6337 11.1758 19.8555 10.9448 19.8555L7.53684 20.3547C7.30579 20.4101 7.07475 20.2437 7.07475 20.0219C7.01698 19.8 7.19027 19.5782 7.42132 19.5782L10.8293 19.079C11.0025 19.079 11.1758 19.1345 11.2336 19.2454ZM10.3094 16.1396L7.36355 15.1967C7.13251 15.1413 6.90146 15.2522 6.8437 15.474C6.78594 15.6959 6.90146 15.9177 7.13251 15.9732L10.0784 16.916C10.3094 16.9715 10.5404 16.8606 10.5982 16.6387C10.656 16.5278 10.5982 16.3614 10.5404 16.2505C10.4827 16.2505 10.4249 16.195 10.3094 16.1396ZM13.082 13.7547L10.7137 11.5362C10.5404 11.3699 10.3094 11.3699 10.1361 11.5362C9.96283 11.7026 9.96283 11.9245 10.1361 12.0909L12.5043 14.3093C12.6776 14.4757 12.9087 14.4757 13.082 14.3093C13.1975 14.143 13.1975 13.9211 13.082 13.7547ZM14.4105 8.20854C14.1794 8.264 14.0639 8.48585 14.1217 8.7077L14.8148 10.9816C14.8726 11.2035 15.1036 11.3144 15.3347 11.2589C15.5657 11.2035 15.6812 10.9816 15.6235 10.7598L14.9303 8.48585C14.9303 8.43039 14.8726 8.37493 14.8726 8.37493C14.757 8.20854 14.5838 8.15308 14.4105 8.20854Z" fill="#FFD784"/>
<path d="M45.0241 5.82349L47.7389 3.82686C47.9121 3.71594 48.201 3.71594 48.3165 3.88232C48.432 4.04871 48.432 4.32602 48.2587 4.43694L45.5439 6.43357C45.3706 6.54449 45.0818 6.54449 44.9663 6.3781C44.9085 6.32264 44.9085 6.26718 44.9085 6.21172C44.8508 6.04533 44.9085 5.87895 45.0241 5.82349ZM43.2335 3.60502C43.2335 3.71594 43.349 3.82686 43.4645 3.93779C43.6955 4.04871 43.9266 3.93779 44.0421 3.7714L45.3706 1.10924C45.4862 0.887388 45.3706 0.665541 45.1973 0.554618C45.0241 0.443694 44.7353 0.554618 44.6197 0.721003L43.2912 3.38317C43.2335 3.43863 43.2335 3.54955 43.2335 3.60502ZM39.5367 3.54955C39.5367 3.7714 39.71 3.93779 39.941 3.93779C40.1721 3.93779 40.3454 3.7714 40.3454 3.54955V0.388232C40.3454 0.166385 40.1721 0 39.941 0C39.71 0 39.5367 0.166385 39.5367 0.388232V3.54955ZM34.2804 0.998312C34.2804 1.05377 34.2804 1.10924 34.3382 1.10924L35.5512 3.21678C35.6667 3.43863 35.8977 3.49409 36.1288 3.38317C36.3598 3.27224 36.4176 3.0504 36.3021 2.82855L35.0891 0.721003C34.9735 0.499156 34.7425 0.443694 34.5114 0.554618C34.3382 0.721003 34.2804 0.887388 34.2804 0.998312Z" fill="#FFD784"/>
<path d="M33.9339 33.7197L31.5657 34.5516C31.2191 34.6625 30.8725 34.4961 30.757 34.2188C30.6415 33.8861 30.8148 33.5533 31.1036 33.4424L33.4718 32.6104C33.8184 32.4995 34.1649 32.6659 34.2805 32.9432C34.4538 33.2205 34.2805 33.6087 33.9339 33.7197Z" fill="black"/>
<path d="M45.1398 33.7197L47.508 34.5516C47.8546 34.6625 48.2011 34.4961 48.3167 34.2188C48.4322 33.8861 48.2589 33.5533 47.9701 33.4424L45.6019 32.6104C45.2553 32.4995 44.9087 32.6659 44.7932 32.9432C44.6199 33.2205 44.7932 33.6087 45.1398 33.7197Z" fill="black"/>
<path d="M48.3165 41.0979C48.1433 41.0979 48.0277 41.0425 47.9122 40.9316C46.0638 39.1568 42.3093 40.3769 41.905 40.4879C41.5584 40.5988 41.2119 40.4324 41.0963 40.0996C41.0963 40.0442 41.0386 39.9333 41.0386 39.8778C41.1541 37.9366 43.6956 36.8274 46.0638 36.8274C46.3526 36.8274 46.6415 37.0492 46.6415 37.382C46.6415 37.6593 46.4104 37.9366 46.0638 37.9366C44.5043 37.9366 43.0602 38.4912 42.4826 39.2677C44.0422 38.8795 46.9303 38.5467 48.7209 40.2106C48.9519 40.4324 48.9519 40.7652 48.7209 40.987C48.6054 41.0425 48.4321 41.0979 48.3165 41.0979Z" fill="black"/>
<path d="M41.3853 50.4713H33.9918C33.1831 50.4713 32.4322 50.194 31.8546 49.6394C31.6813 49.473 31.6813 49.2512 31.8546 49.1402C32.0279 48.9738 32.2589 48.9738 32.3744 49.1402C32.7788 49.5285 33.3564 49.7503 33.9918 49.7503H41.3853C42.8871 49.7503 44.1001 48.5856 44.1001 47.1436C44.1001 46.9218 44.2733 46.7554 44.5044 46.7554C44.7354 46.7554 44.9087 46.9218 44.9087 47.1436C44.851 48.9738 43.2914 50.4713 41.3853 50.4713Z" fill="black" stroke="black" stroke-miterlimit="10"/>
<path d="M32.6634 42.7622C34.6093 42.7622 36.1868 41.2475 36.1868 39.379C36.1868 37.5105 34.6093 35.9958 32.6634 35.9958C30.7174 35.9958 29.1399 37.5105 29.1399 39.379C29.1399 41.2475 30.7174 42.7622 32.6634 42.7622Z" fill="#ECF0F1"/>
<path d="M32.6635 41.5978C33.9395 41.5978 34.974 40.6046 34.974 39.3794C34.974 38.1541 33.9395 37.1609 32.6635 37.1609C31.3875 37.1609 30.353 38.1541 30.353 39.3794C30.353 40.6046 31.3875 41.5978 32.6635 41.5978Z" fill="black"/>
<path d="M31.5083 39.3794C32.1463 39.3794 32.6635 38.8827 32.6635 38.2701C32.6635 37.6575 32.1463 37.1609 31.5083 37.1609C30.8702 37.1609 30.353 37.6575 30.353 38.2701C30.353 38.8827 30.8702 39.3794 31.5083 39.3794Z" fill="#ECF0F1"/>
<path d="M40.1722 54.352H36.7065C36.4754 54.352 36.2444 54.1856 36.2444 53.9083C36.2444 53.6864 36.4177 53.4646 36.7065 53.4646H40.1722C40.4032 53.4646 40.6343 53.631 40.6343 53.9083C40.6343 54.1856 40.4032 54.352 40.1722 54.352Z" fill="#B21010"/>
<path d="M65.2988 35.7768C65.2988 35.7214 65.2988 35.7214 65.2988 35.6659C65.241 35.6659 65.241 35.6659 65.1833 35.6104C65.2988 34.7231 65.01 34.0575 64.6057 33.6693C64.7212 33.6693 64.8367 33.6693 64.9522 33.6693C64.779 33.5029 64.5479 33.392 64.1436 33.5029C64.1436 33.5029 64.8945 34.5012 64.6057 35.4441C64.3169 36.4424 63.9703 36.7751 63.2194 36.7751H63.1616C63.5082 36.997 64.8945 37.8844 65.2988 38.439C65.2988 38.4945 65.2988 38.5499 65.2988 38.6608L66.9161 35.6659C66.9739 35.7768 65.4143 36.8861 65.2988 35.7768Z" fill="#B21010"/>
<path d="M66.454 39.8801C65.6453 37.828 67.0316 36.0532 68.1868 34.5003C68.3023 34.3893 68.4179 34.2784 68.5334 34.2784C68.1868 33.4465 67.9558 32.6146 67.7247 31.7272C67.3782 30.3961 67.3204 29.1205 67.3782 27.7339V27.6785C66.8005 28.2885 66.9161 29.3423 67.0316 30.0079H67.0893C67.0893 30.0079 67.2626 30.8398 67.5514 31.6163C66.5117 31.3944 66.7428 31.6717 65.8186 32.2818C65.0099 32.8364 64.7789 33.391 63.9702 33.391C64.028 33.391 64.028 33.391 64.0857 33.4465C64.3745 33.5574 64.6056 33.6683 64.7789 33.8347C64.7211 33.7793 64.6634 33.7238 64.6634 33.7238C65.3565 33.8347 66.5117 33.5574 66.9161 32.67C66.9161 33.391 67.2049 33.8902 67.5514 34.4448C67.0316 34.8885 66.685 35.6095 66.685 35.6095C66.685 35.6095 66.6273 35.6095 66.5695 35.665C66.5695 35.7204 66.5117 35.7204 66.5117 35.7759C66.5117 35.8868 66.5117 35.9423 66.5117 36.0532C66.454 36.3305 66.3384 36.5524 66.2229 36.7742C66.1074 36.996 66.0496 37.2734 65.9341 37.4952C65.8764 37.6616 65.8186 37.828 65.7608 37.9944C65.7031 38.1607 65.5875 38.2717 65.472 38.3826C65.472 38.438 65.4143 38.4381 65.4143 38.4935L65.472 38.549C65.472 40.9893 67.8403 41.5439 67.8403 41.5439L67.7825 45.2598C68.0135 45.4262 68.2446 45.5926 68.4756 45.6481C68.4179 44.5943 68.4179 43.596 68.4756 42.5422C68.4756 42.2649 68.6489 42.0985 68.8222 41.9876C67.7247 41.5994 66.8583 40.9338 66.454 39.8801Z" fill="#B21010"/>
<path d="M67.9558 34.1679C68.1869 34.0015 68.4757 33.946 68.7645 33.946C69.0533 33.946 69.3421 33.946 69.6309 34.057C70.1508 34.2234 70.6706 34.5007 71.0172 34.9444C70.7284 34.8889 70.4973 34.8334 70.2085 34.778L69.4576 34.5561C68.9378 34.4452 68.4757 34.3343 67.9558 34.1679Z" fill="#B21010"/>
<path d="M69.342 30.6721C69.6308 31.2822 69.8041 31.9477 69.9196 32.5578C70.0351 33.2234 70.0929 33.8334 70.0929 34.499C69.8618 34.2217 69.7463 33.8889 69.6308 33.6116C69.5153 33.2788 69.4575 32.9461 69.3997 32.6687C69.2265 32.0032 69.2265 31.3377 69.342 30.6721Z" fill="#B21010"/>
<path d="M67.1471 30.6189C67.6092 31.1181 67.898 31.7281 68.129 32.2828C68.3601 32.8928 68.5334 33.5029 68.5334 34.1685C68.0713 33.6693 67.7825 33.0592 67.5514 32.5046C67.3781 31.8945 67.2049 31.2844 67.1471 30.6189Z" fill="#B21010"/>
<path d="M66.9159 32.6709C66.9159 32.5045 66.8582 32.4491 66.8582 32.3936C66.8582 32.3381 66.8582 32.2272 66.8582 32.1718C66.8582 32.1163 66.8582 32.0054 66.9159 31.9499C66.9737 31.839 66.9737 31.7835 67.0892 31.6726C67.378 31.7835 67.4358 32.0054 67.4358 32.2272C67.4358 32.3381 67.378 32.4491 67.3202 32.56C67.147 32.6155 67.0314 32.6709 66.9159 32.6709Z" fill="#B21010"/>
<path d="M65.1834 35.6638C65.299 35.7193 65.2989 35.8857 65.2989 35.9411C65.2989 36.0521 65.2412 36.1075 65.1834 36.163C65.0679 36.2739 64.8369 36.3294 64.6636 36.163C64.6636 36.052 64.7213 35.9411 64.7213 35.8857C64.7213 35.8302 64.7791 35.7747 64.8369 35.7193C64.8946 35.7193 64.8946 35.6638 64.9524 35.6638C65.0101 35.7193 65.0679 35.7193 65.1834 35.6638Z" fill="#B21010"/>
<path d="M66.6275 35.6125C66.7431 35.9453 66.6853 36.2781 66.5698 36.4999C66.4543 36.7773 66.281 36.9991 65.9922 37.2209C65.8766 36.8882 65.9344 36.6109 66.0499 36.3336C66.1655 36.0562 66.3387 35.8344 66.6275 35.6125Z" fill="#B21010"/>
<path d="M69.4001 35.7219C69.1113 36.332 68.8225 36.7757 68.5914 37.3303C68.4759 37.6076 68.3026 37.8295 68.1871 38.1068C68.0716 38.3841 67.956 38.6614 67.7828 38.9387C67.6095 38.3286 67.7828 37.6631 68.0716 37.1085C68.2449 36.8312 68.4181 36.5538 68.6492 36.332C68.8225 36.0547 69.1113 35.8328 69.4001 35.7219Z" fill="#B21010"/>
<path d="M10.367 48.4188C10.367 48.4188 7.65218 45.0911 7.0168 44.1483C6.38143 43.2054 10.3092 43.2609 10.3092 43.2609C10.3092 43.2609 12.2731 46.9213 13.6594 48.2524C14.006 48.9734 13.1395 48.0306 12.6775 48.4188C12.2154 48.7516 11.1179 49.0289 10.367 48.4188Z" fill="#E22727"/>
<path d="M9.78952 43.3157V43.2603C8.74981 43.2603 6.4971 43.3712 7.01696 44.0922C7.65234 45.035 10.3671 48.3627 10.3671 48.3627C10.887 48.8064 11.5801 48.8064 12.1 48.64C10.9448 47.0871 10.1361 45.3123 9.78952 43.3157Z" fill="#B21010"/>
<path d="M11.5806 46.6939L10.021 47.0266C9.78996 47.0821 9.61667 46.9712 9.55891 46.7493C9.50115 46.5275 9.61667 46.3611 9.84772 46.3056L11.4073 45.9729C11.6383 45.9174 11.8116 46.0283 11.8694 46.2502C11.9271 46.4166 11.8116 46.6384 11.5806 46.6939Z" fill="#36312B"/>
<path d="M13.3131 57.8417C12.3312 58.0636 11.3492 57.1207 11.1759 56.067L9.84741 47.6922L11.9268 47.2485L14.4683 55.346C14.7572 56.3443 14.2951 57.6199 13.3131 57.8417Z" fill="#659922"/>
<path d="M11.9269 49.2435C11.9847 49.5208 11.8114 49.8536 11.4648 49.9091C11.176 49.9645 10.8294 49.7981 10.7717 49.4654C10.7139 49.1881 10.8872 48.8553 11.2338 48.7998C11.5804 48.7444 11.8692 48.9662 11.9269 49.2435Z" fill="#36312B"/>
<path d="M13.3709 55.3439C13.4287 55.6212 13.2554 55.9539 12.9088 56.0094C12.62 56.0649 12.2734 55.8985 12.2157 55.5657C12.1579 55.2884 12.3312 54.9556 12.6778 54.9002C12.9666 54.8447 13.2554 55.0111 13.3709 55.3439Z" fill="#36312B"/>
<path d="M7.71098 18.4058L1.06838 19.8478C0.25972 20.0142 -0.202373 20.9016 0.0864354 21.6781L2.57019 28.7772C2.80123 29.4427 3.49437 29.8864 4.18751 29.72L5.05394 29.5536C5.63156 29.4427 6.20917 29.7755 6.3247 30.3301L9.38607 45.693L11.4655 45.2493L7.53769 30.1082C7.42217 29.5536 7.76874 28.999 8.34636 28.8881L9.21278 28.7217C9.90592 28.5553 10.368 27.9452 10.2525 27.1688L9.38607 19.7369C9.27054 18.8495 8.51964 18.2394 7.71098 18.4058ZM2.22362 24.2293L4.18751 21.2344C4.24528 21.1234 4.41856 21.068 4.53409 21.1789C4.64961 21.2898 4.70737 21.4007 4.64961 21.5117L2.68571 24.5066C2.62795 24.5621 2.57019 24.6175 2.51243 24.6175C2.45466 24.6175 2.3969 24.6175 2.33914 24.5621C2.16586 24.5066 2.16586 24.3402 2.22362 24.2293ZM3.26333 26.5587C3.20557 26.6141 3.1478 26.6696 3.09004 26.6696C3.03228 26.6696 2.97452 26.6696 2.91676 26.6141C2.80123 26.5587 2.74347 26.3923 2.859 26.2814L6.44022 20.8461C6.49798 20.7352 6.67127 20.6797 6.78679 20.7907C6.90231 20.8461 6.96008 21.0125 6.84455 21.1234L3.26333 26.5587ZM4.53409 27.557C4.47632 27.557 4.41856 27.557 4.3608 27.5015C4.24528 27.4461 4.18751 27.2797 4.30304 27.1688L7.88426 21.7335C7.94202 21.6226 8.11531 21.5671 8.23083 21.6781C8.34636 21.789 8.40412 21.8999 8.28859 22.0108L4.64961 27.4461C4.64961 27.5015 4.59185 27.557 4.53409 27.557ZM8.86621 24.1184L6.90231 27.1133C6.84455 27.1688 6.78679 27.2242 6.72903 27.2242C6.67127 27.2242 6.61351 27.2242 6.55574 27.1688C6.44022 27.1133 6.38246 26.9469 6.49798 26.836L8.46188 23.8411C8.51964 23.7301 8.69293 23.6747 8.80845 23.7856C8.92397 23.8411 8.92397 24.0074 8.86621 24.1184Z" fill="#36312B"/>
<path d="M12.9089 39.5457C12.9089 39.5457 13.4865 39.6566 13.7176 40.4885C13.9486 41.3205 13.6598 41.6532 12.7356 42.3188C11.7537 43.0398 8.40352 44.3709 6.84395 44.5373C6.84395 44.5373 4.82229 45.3137 3.66706 41.0986C2.8584 40.3222 2.3963 39.1575 3.14721 37.9928C3.95587 36.8281 5.05334 35.6079 5.39991 35.1088C5.74648 34.5541 6.55514 34.8314 7.59485 34.6651C8.63456 34.4987 10.0786 34.055 10.0786 34.055C10.0786 34.055 11.1183 33.6113 11.2338 34.3323C11.3494 35.0533 11.3494 35.5524 11.3494 35.5524C11.3494 35.5524 12.158 35.1642 12.5624 35.6634C12.9667 36.1625 13.4288 37.1054 12.7934 37.5491C12.9667 38.3255 13.0245 38.9356 12.9089 39.5457Z" fill="#E22727"/>
<path d="M13.7175 40.5984C12.9666 41.6522 11.6958 42.2623 10.3673 42.7614C9.96298 42.8724 9.55865 42.9833 9.15432 43.0942C8.98103 43.1497 8.74999 43.2051 8.5767 43.2606C8.17237 43.427 7.76804 43.5379 7.36371 43.5934C6.09295 43.7043 5.63086 42.9833 5.16876 41.985C4.76443 41.0976 4.07129 40.2657 4.12905 39.2674C4.12905 38.6573 4.47562 38.1581 4.87996 37.8253V37.7699C4.82219 37.3262 4.93772 36.8825 5.111 36.4388C5.34205 35.8287 5.74638 35.2741 6.15071 34.7195C5.80414 34.7195 5.51533 34.8304 5.34205 35.0523C4.99548 35.6069 3.89801 36.7716 3.08934 37.9363C2.33844 39.1564 2.80054 40.2657 3.6092 41.0421C4.76443 45.2572 6.78609 44.4808 6.78609 44.4808C8.34565 44.3698 11.6958 42.9833 12.6778 42.2623C13.602 41.6522 13.8908 41.3194 13.7175 40.5984Z" fill="#B21010"/>
<path d="M4.70667 37.8243C5.74637 37.2696 6.84385 36.8259 7.94132 36.4377C8.51893 36.2713 9.03879 36.105 9.61641 35.9386C10.194 35.7722 10.7716 35.6613 11.2915 35.4949C10.8294 35.8831 10.3095 36.1604 9.73193 36.3823C9.21207 36.6041 8.63446 36.8259 8.05684 36.9923C7.01713 37.3251 5.8619 37.6579 4.70667 37.8243Z" fill="#B21010"/>
<path d="M12.7932 37.4363C12.2155 38.0464 11.5224 38.5455 10.8293 38.9337C10.4827 39.1556 10.0784 39.322 9.73179 39.4884C9.32746 39.6547 8.92313 39.7657 8.5188 39.8766C9.15418 39.322 9.84732 38.8783 10.5405 38.4901C11.2336 38.1018 11.9267 37.7136 12.7932 37.4363Z" fill="#B21010"/>
<path d="M12.9089 39.5457C12.9089 39.712 12.7934 39.823 12.7356 39.9893C12.6779 40.1003 12.5623 40.2667 12.4468 40.3221C12.2158 40.544 11.9847 40.7104 11.7537 40.8767C11.2916 41.2095 10.7717 41.4314 10.1364 41.5423C10.4829 41.0431 10.945 40.7104 11.4071 40.3776C11.6382 40.2112 11.8692 40.1003 12.158 39.9339C12.2735 39.8784 12.3891 39.823 12.5046 39.712C12.6779 39.712 12.7934 39.6011 12.9089 39.5457Z" fill="#B21010"/>
<path d="M5.86222 37.3826C5.7467 37.4381 5.63117 37.4935 5.57341 37.4935C5.51565 37.4935 5.40013 37.549 5.34236 37.549C5.16908 37.549 4.99579 37.4935 4.82251 37.2717C4.99579 37.0498 5.16908 36.9944 5.40013 36.9944C5.51565 36.9944 5.63117 37.0498 5.68894 37.1053C5.7467 37.1053 5.80446 37.2162 5.86222 37.3826Z" fill="#B21010"/>
<path d="M7.19043 34.5529L7.59476 36.494L9.0388 36.0503L8.51895 34.0537L7.19043 34.5529Z" fill="#36312B"/>
<path d="M19.8403 49.0269C19.8403 49.0269 15.9702 47.1412 13.0822 47.6958C10.1941 48.2505 17.1255 50.4689 17.1255 50.4689L21.1688 51.0236L19.8403 49.0269Z" fill="#E22727"/>
<g clip-path="url(#clip0_3_15191)">
<path d="M89.4105 22.9993H84.0243V43.3341H89.4105V22.9993Z" fill="#E2180F"/>
<path d="M101.806 22.3235C96.1987 22.3235 92.8784 25.6251 92.8784 31.1778V43.4087H98.2647V39.4317C98.2647 39.1316 98.2647 38.8315 98.2647 38.5313C98.2647 38.4563 98.2647 38.3812 98.2647 38.3062C99.4452 38.9065 100.773 39.2066 102.323 39.2066C107.119 39.2066 110.439 35.755 110.439 30.8776C110.365 25.6251 106.971 22.3235 101.806 22.3235ZM101.733 27.2759C103.725 27.2759 104.979 28.7016 104.979 30.8026C104.979 32.9786 103.798 34.2542 101.733 34.2542C99.6666 34.2542 98.2647 32.8286 98.2647 30.8776C98.2647 28.6265 99.5928 27.2759 101.733 27.2759Z" fill="#E2180F"/>
<path d="M112.948 43.3341H127.557V38.5318H118.261V35.5303H124.754V30.803H118.261V27.8766H127.557V22.9993H112.948V43.3341Z" fill="#E2180F"/>
<path d="M138.994 22.3235C133.386 22.3235 130.066 25.6251 130.066 31.1778V43.4087H135.452V39.4317C135.452 39.1316 135.452 38.8315 135.452 38.5313C135.452 38.4563 135.452 38.3812 135.452 38.3062C136.633 38.9065 137.961 39.2066 139.51 39.2066C144.306 39.2066 147.627 35.755 147.627 30.8776C147.553 25.6251 144.233 22.3235 138.994 22.3235ZM138.92 27.2759C140.912 27.2759 142.167 28.7016 142.167 30.8026C142.167 32.9786 140.986 34.2542 138.92 34.2542C136.854 34.2542 135.452 32.8286 135.452 30.8776C135.452 28.6265 136.78 27.2759 138.92 27.2759Z" fill="#E2180F"/>
<path d="M158.768 22.3235C153.16 22.3235 149.84 25.6251 149.84 31.1778V43.4087H155.226V39.4317C155.226 39.1316 155.226 38.8315 155.226 38.5313C155.226 38.4563 155.226 38.3812 155.226 38.3062C156.407 38.9065 157.735 39.2066 159.284 39.2066C164.08 39.2066 167.401 35.755 167.401 30.8776C167.327 25.6251 163.933 22.3235 158.768 22.3235ZM158.694 27.2759C160.686 27.2759 161.94 28.7016 161.94 30.8026C161.94 32.9786 160.76 34.2542 158.694 34.2542C156.628 34.2542 155.226 32.8286 155.226 30.8776C155.226 28.6265 156.554 27.2759 158.694 27.2759Z" fill="#E2180F"/>
<path d="M169.909 43.3341H184.519V38.5318H175.222V35.5303H181.715V30.803H175.222V27.8766H184.519V22.9993H169.909V43.3341Z" fill="#E2180F"/>
<path d="M204.44 29.9776C204.44 25.4755 201.637 22.9993 196.619 22.9993H187.396V43.3341H192.783V36.8059H195.513L199.423 43.3341H205.695L201.046 35.8305C203.112 34.855 204.44 32.6789 204.44 29.9776ZM192.709 27.8766H196.029C198.685 27.8766 199.054 28.9271 199.054 30.0527C199.054 31.0281 198.685 32.0787 196.029 32.0787H192.709V27.8766Z" fill="#E2180F"/>
<path d="M208.941 37.7061C207.171 37.7061 205.916 38.9817 205.916 40.7825C205.916 42.5834 207.171 43.784 208.941 43.784C210.712 43.784 211.967 42.5084 211.967 40.7825C211.967 38.9066 210.712 37.7061 208.941 37.7061Z" fill="#E2180F"/>
<path d="M221.336 26.4514C216.983 26.4514 212.556 29.0777 212.556 35.0806C212.556 41.0835 216.983 43.7848 221.336 43.7848C225.69 43.7848 230.117 41.0835 230.117 35.0806C230.117 29.1527 225.69 26.4514 221.336 26.4514ZM221.336 38.8324C219.197 38.8324 217.795 37.3317 217.795 35.0806C217.795 32.3793 219.713 31.4038 221.336 31.4038C223.033 31.4038 224.878 32.3793 224.878 35.0806C224.878 37.6318 223.107 38.8324 221.336 38.8324Z" fill="#E2180F"/>
<path d="M240.964 26.6021C239.636 26.6021 238.455 26.9772 237.496 27.8026V26.9022H232.183V43.4102H237.496V36.7319C237.496 31.7795 239.931 31.7796 240.742 31.7796C241.259 31.7796 241.775 31.8546 242.218 32.0047L242.956 32.2298V27.0523L242.661 26.9022C242.218 26.7521 241.48 26.6021 240.964 26.6021Z" fill="#E2180F"/>
<path d="M254.982 26.8269V27.5022C254.171 26.977 252.99 26.6018 251.293 26.6018C246.571 26.6018 243.472 29.8284 243.472 34.7808C243.472 39.6581 246.423 42.7346 251.219 42.7346C252.99 42.7346 254.245 42.2844 255.056 41.6841C254.835 43.635 253.728 44.3854 251.146 44.3854C249.375 44.3854 247.235 43.8601 245.538 43.0347L244.8 42.6596V48.0622L245.095 48.2122C246.792 48.9626 248.932 49.3378 251.441 49.3378C256.975 49.3378 260 46.4864 260 41.3839V26.8269H254.982ZM251.957 37.8572C250.408 37.8572 248.711 37.0318 248.711 34.7057C248.711 32.6797 249.891 31.4792 251.883 31.4792C253.728 31.4792 254.909 32.6797 254.909 34.7057C254.909 36.6567 253.802 37.8572 251.957 37.8572Z" fill="#E2180F"/>
</g>
<defs>
<clipPath id="clip0_3_15191">
<rect width="176.309" height="33" fill="white" transform="translate(83.6909 16.5)"/>
</clipPath>
</defs>
</svg>
